<?xml version="1.0" encoding="utf-8"?>
<!-- Generator: Adobe Illustrator 22.1.0, SVG Export Plug-In . SVG Version: 6.00 Build 0)  -->
<svg version="1.1" id="Layer_1" xmlns="http://www.w3.org/2000/svg" xmlns:xlink="http://www.w3.org/1999/xlink" x="0px" y="0px"
	 viewBox="0 0 276.6 276.6" style="enable-background:new 0 0 276.6 276.6;" xml:space="preserve">
<style type="text/css">
	.st0{fill:#290088;}
	.st1{fill:#FFFFFF;}
	.st2{fill:#FF6B00;}
</style>
<circle class="st0" cx="138.3" cy="138.3" r="138.3"/>
<g>
	<path class="st1" d="M41.4,209.6v-12.8h-2.1v-2.1h2.1V194c0-2.1,0.5-4,1.7-5.2c1-1,2.4-1.4,3.6-1.4c1,0,1.8,0.2,2.3,0.4l-0.4,2.1
		c-0.4-0.2-1-0.3-1.7-0.3c-2.3,0-2.9,2-2.9,4.3v0.8h3.6v2.1H44v12.8L41.4,209.6z"/>
	<path class="st1" d="M58.3,209.6l-0.2-1.9H58c-0.8,1.2-2.4,2.2-4.6,2.2c-3,0-4.6-2.1-4.6-4.3c0-3.6,3.2-5.6,9-5.5v-0.3
		c0-1.2-0.3-3.4-3.4-3.4c-1.4,0-2.8,0.4-3.9,1.1l-0.6-1.8c1.2-0.8,3-1.3,4.9-1.3c4.6,0,5.7,3.1,5.7,6.1v5.6c0,1.3,0.1,2.6,0.2,3.6
		h-2.4V209.6z M57.9,202c-3-0.1-6.3,0.5-6.3,3.4c0,1.8,1.2,2.6,2.6,2.6c1.9,0,3.2-1.2,3.6-2.5c0.1-0.3,0.2-0.6,0.2-0.9L57.9,202z"/>
	<path class="st1" d="M64.5,206.8c0.8,0.5,2.2,1.1,3.6,1.1c2,0,2.9-1,2.9-2.2c0-1.3-0.8-2-2.8-2.7c-2.7-1-3.9-2.4-3.9-4.2
		c0-2.4,1.9-4.4,5.1-4.4c1.5,0,2.8,0.4,3.7,0.9l-0.7,2c-0.6-0.4-1.7-0.9-3-0.9c-1.6,0-2.5,0.9-2.5,2c0,1.2,0.9,1.8,2.8,2.5
		c2.6,1,3.9,2.3,3.9,4.5c0,2.6-2,4.5-5.6,4.5c-1.6,0-3.1-0.4-4.2-1L64.5,206.8z"/>
	<path class="st1" d="M80.4,190.4v4.3h3.9v2.1h-3.9v8c0,1.8,0.5,2.9,2,2.9c0.7,0,1.2-0.1,1.6-0.2l0.1,2c-0.5,0.2-1.4,0.4-2.4,0.4
		c-1.3,0-2.3-0.4-2.9-1.1c-0.8-0.8-1-2.1-1-3.9v-8.1h-2.3v-2.1h2.3v-3.6L80.4,190.4z"/>
	<path class="st1" d="M87.3,199.6c0-1.9-0.1-3.5-0.1-4.9h2.4l0.1,2.6h0.1c1.1-1.8,2.9-2.9,5.3-2.9c3.6,0,6.3,3,6.3,7.6
		c0,5.4-3.3,8-6.8,8c-2,0-3.7-0.9-4.6-2.3h0v8.1h-2.7V199.6z M90,203.5c0,0.4,0.1,0.8,0.1,1.1c0.5,1.9,2.1,3.2,4.1,3.2
		c2.9,0,4.5-2.3,4.5-5.8c0-3-1.6-5.5-4.4-5.5c-1.8,0-3.6,1.3-4.1,3.4c-0.1,0.3-0.2,0.7-0.2,1.1V203.5z"/>
	<path class="st1" d="M113.1,209.6l-0.2-1.9h-0.1c-0.8,1.2-2.4,2.2-4.6,2.2c-3,0-4.6-2.1-4.6-4.3c0-3.6,3.2-5.6,9-5.5v-0.3
		c0-1.2-0.3-3.4-3.4-3.4c-1.4,0-2.8,0.4-3.9,1.1l-0.6-1.8c1.2-0.8,3-1.3,4.9-1.3c4.6,0,5.7,3.1,5.7,6.1v5.6c0,1.3,0.1,2.6,0.2,3.6
		h-2.4V209.6z M112.7,202c-3-0.1-6.3,0.5-6.3,3.4c0,1.8,1.2,2.6,2.6,2.6c1.9,0,3.2-1.2,3.6-2.5c0.1-0.3,0.2-0.6,0.2-0.9L112.7,202z"
		/>
	<path class="st1" d="M119.3,206.8c0.8,0.5,2.2,1.1,3.6,1.1c2,0,2.9-1,2.9-2.2c0-1.3-0.8-2-2.8-2.7c-2.7-1-3.9-2.4-3.9-4.2
		c0-2.4,1.9-4.4,5.1-4.4c1.5,0,2.8,0.4,3.7,0.9l-0.7,2c-0.6-0.4-1.7-0.9-3-0.9c-1.6,0-2.5,0.9-2.5,2c0,1.2,0.9,1.8,2.8,2.5
		c2.6,1,3.9,2.3,3.9,4.5c0,2.6-2,4.5-5.6,4.5c-1.6,0-3.1-0.4-4.2-1L119.3,206.8z"/>
	<path class="st1" d="M131.5,206.8c0.8,0.5,2.2,1.1,3.6,1.1c2,0,2.9-1,2.9-2.2c0-1.3-0.8-2-2.8-2.7c-2.7-1-3.9-2.4-3.9-4.2
		c0-2.4,1.9-4.4,5.1-4.4c1.5,0,2.8,0.4,3.7,0.9l-0.7,2c-0.6-0.4-1.7-0.9-3-0.9c-1.6,0-2.5,0.9-2.5,2c0,1.2,0.9,1.8,2.8,2.5
		c2.6,1,3.9,2.3,3.9,4.5c0,2.6-2,4.5-5.6,4.5c-1.6,0-3.1-0.4-4.2-1L131.5,206.8z"/>
</g>
<path class="st2" d="M173.1,180.2c0,0-60.7-32.4-145.1,0.4c0,0,99.4-15.8,145.1,29V180.2z"/>
<g>
	<path class="st1" d="M219.2,98.3c-5.8,0-12.3,1.2-17.2,3.4v-5.3h-21.3v25.3c-4.5-15.4-19-25.3-35.8-25.3
		c-16.6,0-30.8,9.4-35.7,24.1c-1.5-14.6-11.4-24-25.7-24c-8.5,0-15.5,3.1-20.7,8.4V58.7H41.4v110.8c7.1-2.2,14.2-4,21.4-5.5v-29.6
		c0-12.9,5.5-18.7,13.7-18.7c6.9,0,11.6,5.3,11.6,13.2v31.4c5.4-0.4,10.9-0.7,16.3-0.7c1.7,0,3.3,0,4.9,0.1v-15.8
		c2.4,6.9,6.9,12.6,12.8,16.7c12.8,1.1,23.8,3.3,32.5,5.6c12.5-3,22.5-11.8,26-24.1v67.6h21.3v-45.5c4.9,2.1,10.5,3.3,16.3,3.3
		c20.3,0,37.2-14.3,37.2-35.5C255.4,110.8,239.4,98.3,219.2,98.3z M145.8,149.4c-9.6,0-17.4-7.8-17.4-17.4s7.8-17.4,17.4-17.4
		c9.6,0,17.4,7.8,17.4,17.4S155.4,149.4,145.8,149.4z M219.2,149.4c-9.1,0-16.6-7-17.3-16v-2.8c0.7-8.9,8.2-16,17.3-16
		c9.6,0,17.4,7.8,17.4,17.4C236.6,141.7,228.8,149.4,219.2,149.4z"/>
</g>
<g>
	<path class="st1" d="M146.1,205.6c0-2.3,1.7-4,3.8-4s3.8,1.6,3.8,4c0,2.3-1.7,3.9-3.8,3.9S146.1,207.9,146.1,205.6z M152.9,205.6
		c0-1.9-1.3-3.2-3-3.2c-1.7,0-3,1.3-3,3.2c0,1.9,1.3,3.2,3,3.2C151.6,208.8,152.9,207.5,152.9,205.6z M148.4,203.5h1.5
		c0.8,0,1.6,0.3,1.6,1.3c0,0.5-0.3,0.9-0.8,1.1l0.9,1.7h-0.9l-0.7-1.4h-0.8v1.4h-0.8V203.5z M149.8,205.5c0.5,0,0.9-0.2,0.9-0.7
		c0-0.4-0.2-0.7-0.8-0.7h-0.6v1.3H149.8z"/>
</g>
</svg>
